<svg width="33" height="33" viewBox="0 0 33 33" fill="none" xmlns="http://www.w3.org/2000/svg">
<path d="M23.2917 4.125C25.1356 4.125 26.9094 4.85375 28.2142 6.16138C29.5205 7.46625 30.2506 9.22625 30.2506 11.0688V21.9312C30.2506 25.7675 27.1294 28.875 23.2917 28.875H9.70811C5.87049 28.875 2.75061 25.7675 2.75061 21.9312V11.0688C2.75061 7.2325 5.85674 4.125 9.70811 4.125H23.2917ZM24.8469 11.275C24.5581 11.2599 24.2831 11.3575 24.0755 11.55L17.8756 16.5C17.0781 17.1614 15.9355 17.1614 15.1256 16.5L8.93811 11.55C8.51049 11.2338 7.91924 11.275 7.56311 11.6462C7.19186 12.0175 7.15061 12.6087 7.46549 13.0212L7.64561 13.2L13.9019 18.0812C14.6719 18.6862 15.6055 19.0162 16.5831 19.0162C17.558 19.0162 18.5081 18.6862 19.2767 18.0812L25.4794 13.1175L25.5894 13.0075C25.918 12.6088 25.918 12.0312 25.5742 11.6325C25.3831 11.4276 25.1205 11.3025 24.8469 11.275Z" fill="#F4D35E"/>
</svg>
